<svg width="20" height="20" viewBox="0 0 20 20" fill="none" xmlns="http://www.w3.org/2000/svg">
<path d="M16.8401 11.3862C16.7697 11.3156 16.6814 11.2655 16.5846 11.2414C16.4879 11.2172 16.3864 11.2198 16.291 11.2489C15.244 11.5655 14.1307 11.5921 13.0698 11.3257C12.0088 11.0594 11.04 10.5102 10.2666 9.73654C9.49313 8.96292 8.944 7.99391 8.67772 6.93277C8.41144 5.87162 8.43798 4.7581 8.75451 3.71085C8.78389 3.61542 8.7867 3.51379 8.76265 3.41689C8.73859 3.31998 8.68859 3.23147 8.618 3.16086C8.54741 3.09026 8.45891 3.04024 8.36203 3.01618C8.26514 2.99212 8.16353 2.99494 8.06813 3.02432C6.62056 3.46785 5.34972 4.35673 4.43646 5.56447C3.63779 6.62506 3.15062 7.88739 3.02969 9.20964C2.90875 10.5319 3.15884 11.8617 3.75186 13.0496C4.34488 14.2375 5.25734 15.2365 6.38671 15.9344C7.51608 16.6322 8.81763 17.0012 10.1451 17C11.6939 17.0047 13.2014 16.5012 14.4364 15.5665C15.6439 14.653 16.5326 13.3819 16.976 11.9341C17.0051 11.839 17.0078 11.7378 16.9838 11.6414C16.9599 11.5449 16.9102 11.4567 16.8401 11.3862ZM13.7761 14.6891C12.6131 15.5653 11.1727 15.9918 9.72022 15.8901C8.26773 15.7883 6.90086 15.1652 5.87124 14.1355C4.84161 13.1057 4.21854 11.7386 4.11672 10.2859C4.0149 8.83307 4.44118 7.39239 5.31709 6.22903C5.88776 5.47527 6.62553 4.86425 7.47234 4.44406C7.4241 4.78267 7.39979 5.12427 7.39959 5.4663C7.40158 7.3593 8.15431 9.1742 9.49259 10.5128C10.8309 11.8513 12.6454 12.6042 14.538 12.6062C14.8806 12.6061 15.2229 12.5818 15.5621 12.5334C15.1416 13.3806 14.5302 14.1185 13.7761 14.6891Z" fill="black"/>
</svg>
