<svg viewBox="0 0 166 90" fill="none" xmlns="http://www.w3.org/2000/svg">
<rect x="0.5" y="0.5" width="165" height="89" rx="44.5" fill="#212121" stroke="#fafafa" stroke-width="3"/>
<path d="M39 41.5C37.067 41.5 35.5 43.067 35.5 45C35.5 46.933 37.067 48.5 39 48.5V41.5ZM129.475 47.4749C130.842 46.108 130.842 43.892 129.475 42.5251L107.201 20.2513C105.834 18.8844 103.618 18.8844 102.251 20.2513C100.884 21.6181 100.884 23.8342 102.251 25.201L122.05 45L102.251 64.799C100.884 66.1658 100.884 68.3819 102.251 69.7487C103.618 71.1156 105.834 71.1156 107.201 69.7487L129.475 47.4749ZM39 48.5H127V41.5H39V48.5Z" fill="white"/>
</svg>
