<svg width="20" height="20" viewBox="0 0 20 20" fill="none" xmlns="http://www.w3.org/2000/svg">
<path d="M9.4 3.4V1.6C9.4 1.44087 9.46321 1.28826 9.57574 1.17574C9.68826 1.06321 9.84087 1 10 1C10.1591 1 10.3117 1.06321 10.4243 1.17574C10.5368 1.28826 10.6 1.44087 10.6 1.6V3.4C10.6 3.55913 10.5368 3.71174 10.4243 3.82426C10.3117 3.93679 10.1591 4 10 4C9.84087 4 9.68826 3.93679 9.57574 3.82426C9.46321 3.71174 9.4 3.55913 9.4 3.4ZM14.8 10C14.8 10.9494 14.5185 11.8774 13.9911 12.6667C13.4636 13.4561 12.714 14.0713 11.8369 14.4346C10.9598 14.7979 9.99468 14.893 9.06357 14.7078C8.13246 14.5226 7.27718 14.0654 6.60589 13.3941C5.9346 12.7228 5.47744 11.8675 5.29223 10.9364C5.10702 10.0053 5.20208 9.04021 5.56538 8.16312C5.92868 7.28603 6.54391 6.53638 7.33326 6.00895C8.12262 5.48152 9.05065 5.2 10 5.2C11.2726 5.20139 12.4927 5.70755 13.3926 6.60742C14.2925 7.5073 14.7986 8.72739 14.8 10ZM13.6 10C13.6 9.28799 13.3889 8.59196 12.9933 7.99995C12.5977 7.40793 12.0355 6.94651 11.3777 6.67403C10.7198 6.40156 9.99601 6.33027 9.29768 6.46917C8.59934 6.60808 7.95789 6.95095 7.45442 7.45442C6.95095 7.95789 6.60808 8.59934 6.46917 9.29768C6.33027 9.99601 6.40156 10.7198 6.67403 11.3777C6.94651 12.0355 7.40793 12.5977 7.99995 12.9933C8.59196 13.3889 9.28799 13.6 10 13.6C10.9545 13.599 11.8696 13.2194 12.5445 12.5445C13.2194 11.8696 13.599 10.9545 13.6 10ZM4.7755 5.6245C4.88808 5.73708 5.04078 5.80033 5.2 5.80033C5.35922 5.80033 5.51192 5.73708 5.6245 5.6245C5.73708 5.51192 5.80033 5.35922 5.80033 5.2C5.80033 5.04078 5.73708 4.88808 5.6245 4.7755L4.4245 3.5755C4.31192 3.46292 4.15922 3.39967 4 3.39967C3.84078 3.39967 3.68808 3.46292 3.5755 3.5755C3.46292 3.68808 3.39967 3.84078 3.39967 4C3.39967 4.15922 3.46292 4.31192 3.5755 4.4245L4.7755 5.6245ZM4.7755 14.3755L3.5755 15.5755C3.46292 15.6881 3.39967 15.8408 3.39967 16C3.39967 16.1592 3.46292 16.3119 3.5755 16.4245C3.68808 16.5371 3.84078 16.6003 4 16.6003C4.15922 16.6003 4.31192 16.5371 4.4245 16.4245L5.6245 15.2245C5.68025 15.1688 5.72447 15.1026 5.75464 15.0297C5.78481 14.9569 5.80033 14.8788 5.80033 14.8C5.80033 14.7212 5.78481 14.6431 5.75464 14.5703C5.72447 14.4974 5.68025 14.4312 5.6245 14.3755C5.56875 14.3198 5.50257 14.2755 5.42974 14.2454C5.3569 14.2152 5.27884 14.1997 5.2 14.1997C5.12116 14.1997 5.0431 14.2152 4.97026 14.2454C4.89743 14.2755 4.83125 14.3198 4.7755 14.3755ZM14.8 5.8C14.8788 5.80006 14.9569 5.78459 15.0297 5.75448C15.1025 5.72437 15.1687 5.6802 15.2245 5.6245L16.4245 4.4245C16.5371 4.31192 16.6003 4.15922 16.6003 4C16.6003 3.84078 16.5371 3.68808 16.4245 3.5755C16.3119 3.46292 16.1592 3.39967 16 3.39967C15.8408 3.39967 15.6881 3.46292 15.5755 3.5755L14.3755 4.7755C14.2915 4.85941 14.2343 4.96637 14.2111 5.08282C14.1879 5.19927 14.1998 5.31998 14.2452 5.42967C14.2907 5.53937 14.3677 5.63311 14.4664 5.69903C14.5652 5.76495 14.6813 5.80009 14.8 5.8ZM15.2245 14.3755C15.1119 14.2629 14.9592 14.1997 14.8 14.1997C14.6408 14.1997 14.4881 14.2629 14.3755 14.3755C14.2629 14.4881 14.1997 14.6408 14.1997 14.8C14.1997 14.9592 14.2629 15.1119 14.3755 15.2245L15.5755 16.4245C15.6312 16.4802 15.6974 16.5245 15.7703 16.5546C15.8431 16.5848 15.9212 16.6003 16 16.6003C16.0788 16.6003 16.1569 16.5848 16.2297 16.5546C16.3026 16.5245 16.3688 16.4802 16.4245 16.4245C16.4802 16.3688 16.5245 16.3026 16.5546 16.2297C16.5848 16.1569 16.6003 16.0788 16.6003 16C16.6003 15.9212 16.5848 15.8431 16.5546 15.7703C16.5245 15.6974 16.4802 15.6312 16.4245 15.5755L15.2245 14.3755ZM4 10C4 9.84087 3.93679 9.68826 3.82426 9.57574C3.71174 9.46321 3.55913 9.4 3.4 9.4H1.6C1.44087 9.4 1.28826 9.46321 1.17574 9.57574C1.06321 9.68826 1 9.84087 1 10C1 10.1591 1.06321 10.3117 1.17574 10.4243C1.28826 10.5368 1.44087 10.6 1.6 10.6H3.4C3.55913 10.6 3.71174 10.5368 3.82426 10.4243C3.93679 10.3117 4 10.1591 4 10ZM10 16C9.84087 16 9.68826 16.0632 9.57574 16.1757C9.46321 16.2883 9.4 16.4409 9.4 16.6V18.4C9.4 18.5591 9.46321 18.7117 9.57574 18.8243C9.68826 18.9368 9.84087 19 10 19C10.1591 19 10.3117 18.9368 10.4243 18.8243C10.5368 18.7117 10.6 18.5591 10.6 18.4V16.6C10.6 16.4409 10.5368 16.2883 10.4243 16.1757C10.3117 16.0632 10.1591 16 10 16ZM18.4 9.4H16.6C16.4409 9.4 16.2883 9.46321 16.1757 9.57574C16.0632 9.68826 16 9.84087 16 10C16 10.1591 16.0632 10.3117 16.1757 10.4243C16.2883 10.5368 16.4409 10.6 16.6 10.6H18.4C18.5591 10.6 18.7117 10.5368 18.8243 10.4243C18.9368 10.3117 19 10.1591 19 10C19 9.84087 18.9368 9.68826 18.8243 9.57574C18.7117 9.46321 18.5591 9.4 18.4 9.4Z" fill="black"/>
</svg>
