<svg viewBox="0 0 76 33" fill="none" xmlns="http://www.w3.org/2000/svg">
<path d="M45.1394 32.1904H31.3385V19.7642H13.8009V32.1904H0V0.233398H13.8009V13.6471H31.3385V0.233398H45.1394V32.1904Z" fill="currentColor"/>
<path fill-rule="evenodd" clip-rule="evenodd" d="M76 0.233398H62.2261L62.2755 20.1591C62.2425 21.2203 62.0122 22.1626 61.5843 22.986C61.1564 23.7911 60.564 24.4681 59.807 25.017C59.0829 25.5293 58.2108 25.9227 57.1905 26.1971C56.2031 26.4716 55.117 26.6088 53.9321 26.6088C53.6393 26.6088 53.0907 26.614 52.3838 26.6206C50.4835 26.6384 47.4386 26.6669 45.1394 26.6351V32.1904H54.5818C55.0761 32.1904 55.5597 32.2009 56.0488 32.2115C57.8387 32.2504 59.7014 32.2909 62.4236 31.8235C65.0895 31.2563 67.4263 30.4329 69.4339 29.3534C71.4416 28.2922 73.0379 26.9931 74.2227 25.4561C75.4076 23.9008 76 22.1352 76 20.1591V0.233398Z" fill="currentColor"/>
</svg>
