<svg width="96" height="96" fill="none" xmlns="http://www.w3.org/2000/svg"><rect width="96" height="96" rx="48" fill="#F4F4F4"/><path d="M55.14 63.957H41.338V51.531H23.8v12.426H10V32h13.8v13.414H41.34V32h13.8v31.957z" fill="#000"/><path fill-rule="evenodd" clip-rule="evenodd" d="M86 32H72.226l.05 19.926c-.033 1.06-.264 2.003-.692 2.827a5.908 5.908 0 01-1.777 2.03c-.724.513-1.596.906-2.617 1.18-.987.275-2.073.412-3.258.412-.293 0-.841.006-1.548.012-1.9.018-4.945.047-7.245.015v5.555h9.443c.494 0 .978.01 1.467.021 1.79.039 3.652.08 6.375-.388 2.665-.567 5.002-1.39 7.01-2.47 2.008-1.061 3.604-2.36 4.789-3.897C85.408 55.667 86 53.902 86 51.926V32z" fill="#000"/></svg>