<svg viewBox="0 0 128 128" fill="none" xmlns="http://www.w3.org/2000/svg">
<path fill-rule="evenodd" clip-rule="evenodd" d="M63.9993 5.10254C30.6523 5.10254 3.61133 32.1375 3.61133 65.4905C3.61133 92.1725 20.9143 114.808 44.9083 122.794C47.9253 123.354 49.0333 121.484 49.0333 119.889C49.0333 118.449 48.9773 113.692 48.9513 108.646C32.1513 112.299 28.6063 101.521 28.6063 101.521C25.8593 94.5405 21.9013 92.6845 21.9013 92.6845C16.4213 88.9365 22.3143 89.0145 22.3143 89.0145C28.3773 89.4395 31.5713 95.2375 31.5713 95.2375C36.9573 104.468 45.6983 101.8 49.1443 100.258C49.6863 96.3545 51.2513 93.6895 52.9783 92.1815C39.5653 90.6565 25.4643 85.4775 25.4643 62.3385C25.4643 55.7455 27.8243 50.3585 31.6873 46.1285C31.0593 44.6085 28.9923 38.4665 32.2713 30.1485C32.2713 30.1485 37.3413 28.5255 48.8813 36.3385C53.6993 34.9995 58.8663 34.3265 63.9993 34.3035C69.1293 34.3265 74.2993 34.9975 79.1263 36.3365C90.6523 28.5235 95.7163 30.1465 95.7163 30.1465C99.0033 38.4635 96.9363 44.6065 96.3093 46.1265C100.181 50.3565 102.524 55.7435 102.524 62.3365C102.524 85.5305 88.3973 90.6365 74.9503 92.1325C77.1173 94.0065 79.0473 97.6825 79.0473 103.316C79.0473 111.396 78.9773 117.899 78.9773 119.888C78.9773 121.495 80.0653 123.378 83.1253 122.785C107.105 114.791 124.388 92.1625 124.388 65.4905C124.387 32.1395 97.3493 5.10354 63.9993 5.10354V5.10254Z" fill="currentColor"/>
</svg>
