<svg viewBox="0 0 128 128" fill="none" xmlns="http://www.w3.org/2000/svg">
<path d="M107.346 2.01236L100.432 2.44336L100.971 16.8204C100.999 17.6154 100.082 18.0794 99.4565 17.5864L94.8265 13.9364L89.3415 18.0984C89.2003 18.2056 89.0314 18.2704 88.8547 18.2853C88.678 18.3001 88.5007 18.2643 88.3435 18.182C88.1864 18.0998 88.056 17.9745 87.9674 17.8209C87.8788 17.6672 87.8359 17.4915 87.8435 17.3144L88.4605 3.19136L19.8725 7.48036C18.241 7.58202 16.7138 8.31746 15.617 9.52967C14.5203 10.7419 13.9409 12.3348 14.0025 13.9684L17.8625 116.806C17.9214 118.378 18.5691 119.869 19.6769 120.985C20.7848 122.101 22.2717 122.759 23.8425 122.829L107.455 126.583C108.3 126.621 109.144 126.487 109.936 126.189C110.728 125.892 111.452 125.438 112.064 124.853C112.675 124.269 113.162 123.566 113.494 122.788C113.827 122.01 113.999 121.173 114 120.327V8.26436C114 7.40869 113.825 6.56202 113.485 5.77667C113.146 4.99133 112.648 4.28398 112.025 3.69836C111.401 3.11241 110.664 2.66048 109.86 2.37049C109.055 2.0805 108.199 1.95862 107.346 2.01236V2.01236ZM65.8855 23.1994C82.1935 23.1994 91.0995 31.9224 91.0995 48.5184C88.8955 50.2314 72.4795 51.3984 72.4795 48.9614C72.8255 39.6614 68.6625 39.2544 66.3495 39.2544C64.1515 39.2544 60.4505 39.9164 60.4505 44.8984C60.4505 57.1864 92.1405 56.5234 92.1405 81.3224C92.1405 95.2724 80.8055 102.977 66.3495 102.977C51.4295 102.977 38.3925 96.9414 39.8645 76.0144C40.4425 73.5574 59.4095 74.1414 59.4095 76.0144C59.1795 84.6494 61.1445 87.1894 66.1165 87.1894C69.9335 87.1894 71.6695 85.0864 71.6695 81.5434C71.6695 68.9224 40.4425 68.4804 40.4425 45.3424C40.4425 32.0574 49.5805 23.1994 65.8865 23.1994H65.8855Z" fill="currentColor"/>
</svg>
